<svg version="1.1" baseProfile="full" shape-rendering="crispEdges" width="740" height="740" xmlns="http://www.w3.org/2000/svg" xmlns:xlink="http://www.w3.org/1999/xlink"><rect x="0" y="0" width="740" height="740" fill="#ffffff" />
<rect x="80" y="80" width="140" height="20" fill="#000000" />
<rect x="260" y="80" width="20" height="20" fill="#000000" />
<rect x="300" y="80" width="40" height="20" fill="#000000" />
<rect x="360" y="80" width="20" height="20" fill="#000000" />
<rect x="400" y="80" width="100" height="20" fill="#000000" />
<rect x="520" y="80" width="140" height="20" fill="#000000" />
<rect x="80" y="100" width="20" height="100" fill="#000000" />
<rect x="200" y="100" width="20" height="100" fill="#000000" />
<rect x="240" y="100" width="20" height="20" fill="#000000" />
<rect x="280" y="100" width="40" height="20" fill="#000000" />
<rect x="380" y="100" width="100" height="20" fill="#000000" />
<rect x="520" y="100" width="20" height="100" fill="#000000" />
<rect x="640" y="100" width="20" height="100" fill="#000000" />
<rect x="120" y="120" width="60" height="60" fill="#000000" />
<rect x="260" y="120" width="100" height="20" fill="#000000" />
<rect x="380" y="120" width="20" height="20" fill="#000000" />
<rect x="480" y="120" width="20" height="20" fill="#000000" />
<rect x="560" y="120" width="60" height="60" fill="#000000" />
<rect x="240" y="140" width="20" height="20" fill="#000000" />
<rect x="320" y="140" width="20" height="20" fill="#000000" />
<rect x="380" y="140" width="60" height="20" fill="#000000" />
<rect x="460" y="140" width="40" height="20" fill="#000000" />
<rect x="240" y="160" width="40" height="20" fill="#000000" />
<rect x="340" y="160" width="20" height="20" fill="#000000" />
<rect x="440" y="160" width="40" height="20" fill="#000000" />
<rect x="260" y="180" width="20" height="20" fill="#000000" />
<rect x="300" y="180" width="20" height="20" fill="#000000" />
<rect x="340" y="180" width="60" height="20" fill="#000000" />
<rect x="80" y="200" width="140" height="20" fill="#000000" />
<rect x="240" y="200" width="20" height="20" fill="#000000" />
<rect x="280" y="200" width="20" height="20" fill="#000000" />
<rect x="320" y="200" width="20" height="20" fill="#000000" />
<rect x="360" y="200" width="20" height="20" fill="#000000" />
<rect x="400" y="200" width="20" height="20" fill="#000000" />
<rect x="440" y="200" width="20" height="20" fill="#000000" />
<rect x="480" y="200" width="20" height="40" fill="#000000" />
<rect x="520" y="200" width="140" height="20" fill="#000000" />
<rect x="240" y="220" width="40" height="20" fill="#000000" />
<rect x="300" y="220" width="80" height="20" fill="#000000" />
<rect x="400" y="220" width="60" height="20" fill="#000000" />
<rect x="100" y="240" width="20" height="40" fill="#000000" />
<rect x="140" y="240" width="80" height="20" fill="#000000" />
<rect x="240" y="240" width="20" height="20" fill="#000000" />
<rect x="280" y="240" width="20" height="20" fill="#000000" />
<rect x="340" y="240" width="20" height="20" fill="#000000" />
<rect x="400" y="240" width="20" height="20" fill="#000000" />
<rect x="460" y="240" width="20" height="20" fill="#000000" />
<rect x="500" y="240" width="40" height="20" fill="#000000" />
<rect x="560" y="240" width="40" height="20" fill="#000000" />
<rect x="620" y="240" width="20" height="20" fill="#000000" />
<rect x="160" y="260" width="40" height="20" fill="#000000" />
<rect x="260" y="260" width="20" height="20" fill="#000000" />
<rect x="300" y="260" width="80" height="20" fill="#000000" />
<rect x="420" y="260" width="80" height="20" fill="#000000" />
<rect x="560" y="260" width="80" height="20" fill="#000000" />
<rect x="120" y="280" width="60" height="20" fill="#000000" />
<rect x="200" y="280" width="40" height="20" fill="#000000" />
<rect x="260" y="280" width="40" height="20" fill="#000000" />
<rect x="320" y="280" width="20" height="20" fill="#000000" />
<rect x="380" y="280" width="40" height="20" fill="#000000" />
<rect x="500" y="280" width="40" height="20" fill="#000000" />
<rect x="560" y="280" width="20" height="20" fill="#000000" />
<rect x="600" y="280" width="20" height="20" fill="#000000" />
<rect x="120" y="300" width="40" height="20" fill="#000000" />
<rect x="180" y="300" width="20" height="20" fill="#000000" />
<rect x="220" y="300" width="40" height="20" fill="#000000" />
<rect x="280" y="300" width="120" height="20" fill="#000000" />
<rect x="420" y="300" width="20" height="20" fill="#000000" />
<rect x="480" y="300" width="20" height="20" fill="#000000" />
<rect x="540" y="300" width="60" height="20" fill="#000000" />
<rect x="640" y="300" width="20" height="20" fill="#000000" />
<rect x="80" y="320" width="80" height="20" fill="#000000" />
<rect x="200" y="320" width="40" height="20" fill="#000000" />
<rect x="260" y="320" width="80" height="20" fill="#000000" />
<rect x="360" y="320" width="20" height="20" fill="#000000" />
<rect x="500" y="320" width="40" height="20" fill="#000000" />
<rect x="580" y="320" width="20" height="20" fill="#000000" />
<rect x="620" y="320" width="20" height="20" fill="#000000" />
<rect x="100" y="340" width="40" height="20" fill="#000000" />
<rect x="160" y="340" width="40" height="20" fill="#000000" />
<rect x="220" y="340" width="60" height="20" fill="#000000" />
<rect x="340" y="340" width="20" height="20" fill="#000000" />
<rect x="440" y="340" width="20" height="20" fill="#000000" />
<rect x="520" y="340" width="20" height="20" fill="#000000" />
<rect x="560" y="340" width="20" height="20" fill="#000000" />
<rect x="600" y="340" width="20" height="20" fill="#000000" />
<rect x="640" y="340" width="20" height="80" fill="#000000" />
<rect x="80" y="360" width="20" height="60" fill="#000000" />
<rect x="140" y="360" width="80" height="20" fill="#000000" />
<rect x="320" y="360" width="20" height="20" fill="#000000" />
<rect x="360" y="360" width="20" height="20" fill="#000000" />
<rect x="400" y="360" width="20" height="20" fill="#000000" />
<rect x="440" y="360" width="60" height="20" fill="#000000" />
<rect x="540" y="360" width="20" height="20" fill="#000000" />
<rect x="580" y="360" width="20" height="20" fill="#000000" />
<rect x="140" y="380" width="20" height="20" fill="#000000" />
<rect x="180" y="380" width="20" height="20" fill="#000000" />
<rect x="220" y="380" width="20" height="20" fill="#000000" />
<rect x="260" y="380" width="20" height="20" fill="#000000" />
<rect x="380" y="380" width="40" height="20" fill="#000000" />
<rect x="480" y="380" width="20" height="40" fill="#000000" />
<rect x="560" y="380" width="60" height="20" fill="#000000" />
<rect x="180" y="400" width="160" height="20" fill="#000000" />
<rect x="380" y="400" width="20" height="20" fill="#000000" />
<rect x="420" y="400" width="40" height="20" fill="#000000" />
<rect x="540" y="400" width="20" height="20" fill="#000000" />
<rect x="580" y="400" width="20" height="20" fill="#000000" />
<rect x="80" y="420" width="40" height="40" fill="#000000" />
<rect x="220" y="420" width="40" height="20" fill="#000000" />
<rect x="280" y="420" width="40" height="40" fill="#000000" />
<rect x="340" y="420" width="20" height="20" fill="#000000" />
<rect x="420" y="420" width="20" height="20" fill="#000000" />
<rect x="460" y="420" width="40" height="20" fill="#000000" />
<rect x="560" y="420" width="20" height="20" fill="#000000" />
<rect x="600" y="420" width="20" height="20" fill="#000000" />
<rect x="140" y="440" width="40" height="20" fill="#000000" />
<rect x="200" y="440" width="20" height="20" fill="#000000" />
<rect x="240" y="440" width="20" height="20" fill="#000000" />
<rect x="360" y="440" width="20" height="20" fill="#000000" />
<rect x="400" y="440" width="40" height="20" fill="#000000" />
<rect x="460" y="440" width="20" height="20" fill="#000000" />
<rect x="580" y="440" width="40" height="20" fill="#000000" />
<rect x="640" y="440" width="20" height="20" fill="#000000" />
<rect x="80" y="460" width="60" height="20" fill="#000000" />
<rect x="180" y="460" width="20" height="20" fill="#000000" />
<rect x="220" y="460" width="20" height="20" fill="#000000" />
<rect x="280" y="460" width="20" height="20" fill="#000000" />
<rect x="340" y="460" width="20" height="40" fill="#000000" />
<rect x="380" y="460" width="40" height="20" fill="#000000" />
<rect x="440" y="460" width="20" height="20" fill="#000000" />
<rect x="500" y="460" width="40" height="20" fill="#000000" />
<rect x="600" y="460" width="60" height="20" fill="#000000" />
<rect x="80" y="480" width="80" height="20" fill="#000000" />
<rect x="180" y="480" width="100" height="20" fill="#000000" />
<rect x="300" y="480" width="20" height="20" fill="#000000" />
<rect x="420" y="480" width="20" height="20" fill="#000000" />
<rect x="480" y="480" width="160" height="20" fill="#000000" />
<rect x="240" y="500" width="60" height="20" fill="#000000" />
<rect x="380" y="500" width="20" height="20" fill="#000000" />
<rect x="420" y="500" width="80" height="20" fill="#000000" />
<rect x="560" y="500" width="60" height="20" fill="#000000" />
<rect x="80" y="520" width="140" height="20" fill="#000000" />
<rect x="260" y="520" width="40" height="20" fill="#000000" />
<rect x="320" y="520" width="20" height="20" fill="#000000" />
<rect x="360" y="520" width="40" height="20" fill="#000000" />
<rect x="460" y="520" width="40" height="20" fill="#000000" />
<rect x="520" y="520" width="20" height="20" fill="#000000" />
<rect x="560" y="520" width="20" height="20" fill="#000000" />
<rect x="600" y="520" width="20" height="20" fill="#000000" />
<rect x="80" y="540" width="20" height="100" fill="#000000" />
<rect x="200" y="540" width="20" height="100" fill="#000000" />
<rect x="240" y="540" width="20" height="20" fill="#000000" />
<rect x="320" y="540" width="80" height="20" fill="#000000" />
<rect x="440" y="540" width="60" height="20" fill="#000000" />
<rect x="560" y="540" width="40" height="20" fill="#000000" />
<rect x="120" y="560" width="60" height="60" fill="#000000" />
<rect x="240" y="560" width="40" height="20" fill="#000000" />
<rect x="420" y="560" width="20" height="20" fill="#000000" />
<rect x="460" y="560" width="120" height="20" fill="#000000" />
<rect x="620" y="560" width="40" height="20" fill="#000000" />
<rect x="240" y="580" width="140" height="20" fill="#000000" />
<rect x="440" y="580" width="20" height="20" fill="#000000" />
<rect x="540" y="580" width="20" height="20" fill="#000000" />
<rect x="580" y="580" width="60" height="20" fill="#000000" />
<rect x="260" y="600" width="60" height="20" fill="#000000" />
<rect x="360" y="600" width="40" height="20" fill="#000000" />
<rect x="480" y="600" width="40" height="20" fill="#000000" />
<rect x="540" y="600" width="40" height="20" fill="#000000" />
<rect x="620" y="600" width="40" height="20" fill="#000000" />
<rect x="240" y="620" width="40" height="20" fill="#000000" />
<rect x="300" y="620" width="40" height="20" fill="#000000" />
<rect x="400" y="620" width="20" height="20" fill="#000000" />
<rect x="520" y="620" width="20" height="20" fill="#000000" />
<rect x="560" y="620" width="60" height="20" fill="#000000" />
<rect x="640" y="620" width="20" height="20" fill="#000000" />
<rect x="80" y="640" width="140" height="20" fill="#000000" />
<rect x="280" y="640" width="20" height="20" fill="#000000" />
<rect x="380" y="640" width="20" height="20" fill="#000000" />
<rect x="440" y="640" width="60" height="20" fill="#000000" />
<rect x="520" y="640" width="60" height="20" fill="#000000" />
</svg>